<svg width="24" height="25" viewBox="0 0 24 25" fill="none" xmlns="http://www.w3.org/2000/svg">
<g id="FontAwesome/dribbble">
<path id="dribbble" d="M11.7188 3.33545C6.90234 3.33545 3 7.27295 3 12.0542C3 16.8706 6.90234 20.7729 11.7188 20.7729C16.5 20.7729 20.4375 16.8706 20.4375 12.0542C20.4375 7.27295 16.5 3.33545 11.7188 3.33545ZM17.4492 7.37842C18.5039 8.64404 19.1367 10.2612 19.1367 12.019C18.8906 11.9487 16.4297 11.4565 13.9688 11.7729C13.7578 11.2808 13.582 10.8589 13.3008 10.2964C16.0781 9.17139 17.3086 7.58936 17.4492 7.37842ZM16.6406 6.49951C16.5 6.71045 15.375 8.22217 12.7383 9.20654C11.5078 6.95654 10.1719 5.12842 9.96094 4.84717C12.3164 4.28467 14.8125 4.88232 16.6406 6.49951ZM8.51953 5.33936C8.73047 5.62061 10.0664 7.44873 11.2969 9.66357C7.81641 10.5776 4.75781 10.5776 4.40625 10.5425C4.89844 8.25732 6.44531 6.32373 8.51953 5.33936ZM4.26562 12.0894C4.26562 12.019 4.26562 11.9487 4.26562 11.8433C4.58203 11.8784 8.20312 11.9136 11.8945 10.7886C12.1406 11.2104 12.3164 11.6323 12.5273 12.0542C9.82031 12.8276 7.35938 15.0073 6.16406 17.0464C4.96875 15.7456 4.26562 13.9878 4.26562 12.0894ZM7.11328 17.9604C7.92188 16.3784 10.0312 14.3042 13.0195 13.2847C14.0742 15.9917 14.4961 18.2769 14.6016 18.9448C12.2109 19.9644 9.32812 19.6831 7.11328 17.9604ZM15.8672 18.2417C15.7969 17.8198 15.375 15.6401 14.4258 12.9331C16.7461 12.5815 18.7852 13.1792 19.0664 13.2495C18.7148 15.3237 17.5195 17.1167 15.8672 18.2417Z" fill="#9CA3AF"/>
</g>
</svg>
