<svg width="24" height="25" viewBox="0 0 24 25" fill="none" xmlns="http://www.w3.org/2000/svg">
<g id="FontAwesome/github">
<path id="github" d="M8.80078 17.0464C8.80078 16.9761 8.73047 16.9058 8.625 16.9058C8.51953 16.9058 8.44922 16.9761 8.44922 17.0464C8.44922 17.1167 8.51953 17.187 8.625 17.1519C8.73047 17.1519 8.80078 17.1167 8.80078 17.0464ZM7.71094 16.8706C7.71094 16.9409 7.78125 17.0464 7.88672 17.0464C7.95703 17.0815 8.0625 17.0464 8.09766 16.9761C8.09766 16.9058 8.0625 16.8354 7.95703 16.8003C7.85156 16.7651 7.74609 16.8003 7.71094 16.8706ZM9.29297 16.8354C9.1875 16.8354 9.11719 16.9058 9.11719 17.0112C9.11719 17.0815 9.22266 17.1167 9.32812 17.0815C9.43359 17.0464 9.50391 17.0112 9.46875 16.9409C9.46875 16.8706 9.36328 16.8003 9.29297 16.8354ZM11.5781 3.33545C6.72656 3.33545 3 7.06201 3 11.9136C3 15.8159 5.42578 19.1558 8.94141 20.3511C9.39844 20.4214 9.53906 20.1401 9.53906 19.9292C9.53906 19.6831 9.53906 18.4878 9.53906 17.7495C9.53906 17.7495 7.07812 18.2769 6.55078 16.6948C6.55078 16.6948 6.16406 15.6753 5.60156 15.4292C5.60156 15.4292 4.79297 14.8667 5.63672 14.8667C5.63672 14.8667 6.51562 14.937 7.00781 15.7808C7.78125 17.1519 9.04688 16.7651 9.57422 16.519C9.64453 15.9565 9.85547 15.5698 10.1367 15.3237C8.16797 15.1128 6.16406 14.8315 6.16406 11.4565C6.16406 10.4722 6.44531 10.0151 7.00781 9.38232C6.90234 9.13623 6.62109 8.22217 7.11328 6.9917C7.81641 6.78076 9.53906 7.94092 9.53906 7.94092C10.2422 7.72998 10.9805 7.65967 11.7188 7.65967C12.4922 7.65967 13.2305 7.72998 13.9336 7.94092C13.9336 7.94092 15.6211 6.74561 16.3594 6.9917C16.8516 8.22217 16.5352 9.13623 16.4648 9.38232C17.0273 10.0151 17.3789 10.4722 17.3789 11.4565C17.3789 14.8315 15.3047 15.1128 13.3359 15.3237C13.6523 15.605 13.9336 16.1323 13.9336 16.9761C13.9336 18.1362 13.8984 19.6128 13.8984 19.894C13.8984 20.1401 14.0742 20.4214 14.5312 20.3159C18.0469 19.1558 20.4375 15.8159 20.4375 11.9136C20.4375 7.06201 16.4648 3.33545 11.5781 3.33545ZM6.41016 15.4644C6.33984 15.4995 6.375 15.605 6.41016 15.6753C6.48047 15.7104 6.55078 15.7456 6.62109 15.7104C6.65625 15.6753 6.65625 15.5698 6.58594 15.4995C6.51562 15.4644 6.44531 15.4292 6.41016 15.4644ZM6.02344 15.1831C5.98828 15.2534 6.02344 15.2886 6.09375 15.3237C6.16406 15.3589 6.23438 15.3589 6.26953 15.2886C6.26953 15.2534 6.23438 15.2183 6.16406 15.1831C6.09375 15.1479 6.05859 15.1479 6.02344 15.1831ZM7.14844 16.4487C7.11328 16.4839 7.11328 16.5894 7.21875 16.6597C7.28906 16.73 7.39453 16.7651 7.42969 16.6948C7.46484 16.6597 7.46484 16.5542 7.39453 16.4839C7.32422 16.4136 7.21875 16.3784 7.14844 16.4487ZM6.76172 15.9214C6.69141 15.9565 6.69141 16.062 6.76172 16.1323C6.83203 16.2026 6.90234 16.2378 6.97266 16.2026C7.00781 16.1675 7.00781 16.062 6.97266 15.9917C6.90234 15.9214 6.83203 15.8862 6.76172 15.9214Z" fill="#9CA3AF"/>
</g>
</svg>
