<svg width="24" height="25" viewBox="0 0 24 25" fill="none" xmlns="http://www.w3.org/2000/svg">
<g id="FontAwesome/twitter">
<path id="twitter" d="M19.1367 8.95654C19.8398 8.4292 20.4727 7.79639 20.9648 7.05811C20.332 7.33936 19.5938 7.55029 18.8555 7.62061C19.6289 7.16357 20.1914 6.46045 20.4727 5.58154C19.7695 6.00342 18.9609 6.31982 18.1523 6.49561C17.4492 5.75732 16.5 5.33545 15.4453 5.33545C13.4062 5.33545 11.7539 6.98779 11.7539 9.02686C11.7539 9.30811 11.7891 9.58936 11.8594 9.87061C8.80078 9.69482 6.05859 8.21826 4.23047 6.00342C3.91406 6.53076 3.73828 7.16357 3.73828 7.8667C3.73828 9.13232 4.37109 10.2573 5.39062 10.9253C4.79297 10.8901 4.19531 10.7495 3.70312 10.4683V10.5034C3.70312 12.2964 4.96875 13.7729 6.65625 14.1245C6.375 14.1948 6.02344 14.2651 5.70703 14.2651C5.46094 14.2651 5.25 14.23 5.00391 14.1948C5.46094 15.6714 6.83203 16.7261 8.44922 16.7612C7.18359 17.7456 5.60156 18.3433 3.87891 18.3433C3.5625 18.3433 3.28125 18.3081 3 18.2729C4.61719 19.3276 6.55078 19.9253 8.66016 19.9253C15.4453 19.9253 19.1367 14.3354 19.1367 9.44873C19.1367 9.27295 19.1367 9.13232 19.1367 8.95654Z" fill="#9CA3AF"/>
</g>
</svg>
