<svg width="21" height="21" viewBox="0 0 21 21" fill="none" xmlns="http://www.w3.org/2000/svg">
<g id="arrow-narrow-right">
<path id="Vector" fill-rule="evenodd" clip-rule="evenodd" d="M12.751 6.18231C12.9385 5.99484 13.1928 5.88953 13.458 5.88953C13.7232 5.88953 13.9775 5.99484 14.165 6.18231L18.165 10.1823C18.3525 10.3698 18.4578 10.6241 18.4578 10.8893C18.4578 11.1545 18.3525 11.4088 18.165 11.5963L14.165 15.5963C13.9764 15.7785 13.7238 15.8793 13.4616 15.877C13.1994 15.8747 12.9486 15.7695 12.7632 15.5841C12.5778 15.3987 12.4726 15.1479 12.4703 14.8857C12.4681 14.6235 12.5688 14.3709 12.751 14.1823L15.044 11.8893H3.45801C3.19279 11.8893 2.93844 11.784 2.7509 11.5964C2.56336 11.4089 2.45801 11.1545 2.45801 10.8893C2.45801 10.6241 2.56336 10.3697 2.7509 10.1822C2.93844 9.99467 3.19279 9.88931 3.45801 9.88931H15.044L12.751 7.59631C12.5635 7.40878 12.4582 7.15448 12.4582 6.88931C12.4582 6.62415 12.5635 6.36984 12.751 6.18231Z" fill="white"/>
</g>
</svg>
