<svg width="20" height="21" viewBox="0 0 20 21" fill="none" xmlns="http://www.w3.org/2000/svg">
<g id="share">
<path id="Vector" d="M15.0001 8.83545C15.6092 8.83547 16.2039 8.65005 16.7051 8.30385C17.2064 7.95765 17.5903 7.46707 17.8059 6.89736C18.0215 6.32764 18.0586 5.70579 17.9122 5.11449C17.7658 4.52318 17.4429 3.99046 16.9864 3.58715C16.5299 3.18384 15.9614 2.92906 15.3565 2.8567C14.7517 2.78433 14.1392 2.8978 13.6004 3.18202C13.0616 3.46625 12.6221 3.90775 12.3404 4.44783C12.0586 4.9879 11.9479 5.60095 12.0231 6.20545L7.08305 8.67545C6.65928 8.2668 6.12465 7.99187 5.54574 7.8849C4.96684 7.77792 4.36926 7.84364 3.82744 8.07385C3.28561 8.30407 2.8235 8.68862 2.49866 9.17958C2.17382 9.67055 2.00061 10.2462 2.00061 10.835C2.00061 11.4237 2.17382 11.9993 2.49866 12.4903C2.8235 12.9813 3.28561 13.3658 3.82744 13.5961C4.36926 13.8263 4.96684 13.892 5.54574 13.785C6.12465 13.678 6.65928 13.4031 7.08305 12.9945L12.0231 15.4645C11.9355 16.1667 12.0991 16.8773 12.4848 17.4706C12.8706 18.0639 13.4536 18.5017 14.1309 18.7067C14.8082 18.9118 15.5362 18.8707 16.1862 18.5909C16.8362 18.3111 17.3664 17.8105 17.683 17.1776C17.9996 16.5448 18.0823 15.8203 17.9165 15.1323C17.7506 14.4444 17.3469 13.8372 16.7767 13.4181C16.2065 12.999 15.5065 12.795 14.8004 12.842C14.0943 12.8891 13.4276 13.1843 12.9181 13.6755L7.97805 11.2055C8.00832 10.9597 8.00832 10.7112 7.97805 10.4655L12.9181 7.99545C13.4561 8.51545 14.1901 8.83545 15.0001 8.83545Z" fill="#9CA3AF"/>
</g>
</svg>
